<?xml version="1.0" standalone="no"?>
<!DOCTYPE svg PUBLIC "-//W3C//DTD SVG 20010904//EN"
 "http://www.w3.org/TR/2001/REC-SVG-20010904/DTD/svg10.dtd">
<svg version="1.0" xmlns="http://www.w3.org/2000/svg"
 width="896.000000pt" height="1152.000000pt" viewBox="0 0 896.000000 1152.000000"
 preserveAspectRatio="xMidYMid meet">
<metadata>
Created by potrace 1.16, written by Peter Selinger 2001-2019
</metadata>
<g transform="translate(0.000000,1152.000000) scale(0.100000,-0.100000)"
fill="#000000" stroke="none">
<path d="M3703 11506 c-6 -8 -47 -21 -89 -31 -43 -9 -85 -21 -93 -26 -73 -40
-220 -94 -321 -119 -25 -6 -54 -15 -65 -20 -11 -5 -46 -17 -79 -26 -32 -9 -67
-25 -77 -35 -10 -10 -22 -19 -27 -19 -11 0 -33 -40 -27 -50 3 -5 -6 -21 -20
-36 -26 -28 -32 -40 -15 -29 6 3 10 2 10 -4 0 -6 -12 -18 -27 -28 -39 -24
-103 -90 -103 -106 0 -7 -13 -26 -29 -41 -32 -30 -44 -69 -28 -85 8 -8 7 -11
-1 -11 -7 0 -12 -6 -12 -14 0 -8 -14 -27 -31 -43 -40 -37 -92 -110 -126 -175
-14 -29 -39 -71 -53 -93 -15 -22 -31 -51 -35 -65 -4 -14 -21 -50 -36 -81 -16
-31 -29 -62 -29 -69 0 -6 -8 -24 -18 -38 -10 -15 -27 -56 -36 -92 -10 -36 -21
-69 -24 -74 -3 -5 -20 -53 -39 -105 -28 -81 -34 -116 -41 -226 -15 -273 -4
-489 38 -725 5 -30 28 -109 50 -175 48 -143 51 -175 15 -175 -32 0 -31 -3 6
-43 l31 -32 -5 -275 c-5 -209 -3 -287 7 -325 l13 -50 6 85 c9 115 13 308 9
528 -1 102 2 182 7 182 5 0 11 9 14 20 3 11 22 27 42 36 35 14 37 17 31 52
-10 56 -19 461 -10 480 3 9 6 35 5 58 -2 40 29 148 48 167 10 10 80 -27 94
-50 4 -7 19 -13 33 -13 14 0 23 -4 19 -10 -3 -6 2 -13 12 -17 10 -4 21 -11 25
-17 5 -7 8 -7 8 2 0 6 5 12 11 12 5 0 7 -4 4 -10 -4 -6 8 -10 29 -10 20 0 36
-4 36 -8 0 -4 69 -9 153 -9 129 -1 159 -4 196 -21 24 -11 50 -18 57 -15 6 2
30 -5 53 -16 29 -15 59 -21 110 -21 54 0 70 -3 75 -16 5 -12 15 -15 44 -10 20
3 66 7 102 10 76 5 164 37 168 60 3 13 9 15 25 9 12 -4 38 -8 59 -8 20 0 40
-3 44 -7 12 -13 54 -9 60 5 6 15 45 16 65 1 10 -7 47 -7 129 2 63 7 182 17
263 21 125 7 150 11 158 26 6 11 22 17 43 17 18 0 36 3 40 7 7 7 12 8 87 17
26 3 58 10 73 15 14 6 33 8 41 5 10 -4 15 0 15 10 0 21 6 20 32 -6 20 -20 22
-20 35 -3 8 12 13 14 13 6 0 -7 6 -11 14 -8 22 9 73 -14 85 -37 5 -12 12 -33
15 -48 4 -19 11 -26 21 -22 8 4 15 1 15 -5 0 -6 -7 -11 -15 -11 -24 0 -17 -25
14 -49 21 -16 27 -28 24 -46 -3 -15 3 -32 16 -47 12 -12 17 -24 11 -26 -5 -2
-10 -15 -10 -28 0 -14 -5 -35 -11 -46 -8 -14 -8 -23 0 -31 8 -8 11 -8 11 2 0
7 5 9 11 6 6 -4 9 -23 7 -42 -2 -22 3 -37 12 -43 8 -5 11 -10 6 -10 -6 0 -20
9 -32 21 -13 13 -31 19 -46 17 -23 -4 -23 -5 5 -16 31 -13 27 -37 -4 -27 -28
9 -23 -10 9 -34 l27 -20 -27 -1 c-15 0 -30 -4 -33 -10 -3 -5 1 -10 9 -10 9 0
16 -4 16 -10 0 -5 7 -10 15 -10 19 0 19 -14 0 -30 -12 -10 -19 -10 -27 -2 -16
16 -38 -10 -38 -45 0 -21 9 -34 35 -51 19 -12 35 -26 35 -31 0 -11 -43 -1 -51
11 -7 11 -59 0 -59 -12 0 -4 11 -11 24 -14 13 -3 26 -15 29 -27 5 -18 8 -19
27 -9 16 9 25 9 33 1 8 -8 4 -11 -16 -11 -15 0 -27 -4 -27 -10 0 -17 41 -52
55 -46 8 3 25 -10 39 -29 17 -22 32 -32 42 -28 10 4 17 -2 21 -16 3 -12 13
-21 23 -21 10 0 26 -7 35 -16 9 -10 30 -17 46 -18 16 -1 29 -7 29 -13 0 -12
13 -17 24 -10 11 6 46 -39 46 -60 0 -13 5 -33 10 -43 6 -11 12 -41 13 -67 2
-27 6 -54 10 -60 4 -6 9 -31 12 -55 8 -84 25 -190 32 -201 7 -11 16 -97 14
-144 -1 -18 3 -33 7 -33 5 0 3 -39 -5 -87 -7 -49 -11 -97 -8 -109 3 -13 -3
-28 -15 -39 -11 -10 -17 -22 -14 -27 3 -4 -4 -23 -15 -42 -12 -18 -21 -41 -21
-50 0 -10 -4 -14 -10 -11 -5 3 -10 -1 -10 -9 0 -10 -9 -16 -25 -16 -27 0 -34
-15 -10 -24 19 -7 20 -46 1 -46 -8 0 -17 6 -20 13 -3 6 -4 0 -1 -15 6 -30 -10
-65 -37 -86 -10 -7 -18 -20 -18 -28 0 -8 -7 -17 -15 -20 -8 -4 -15 -15 -15
-25 0 -15 -7 -19 -31 -19 -26 0 -29 3 -24 20 3 11 2 20 -4 20 -16 0 -25 -22
-24 -60 l1 -35 -8 34 c-11 47 -32 65 -66 57 l-28 -7 32 -21 c30 -19 38 -34 33
-68 -1 -8 -2 -25 -2 -37 1 -33 -27 -29 -31 4 -2 14 -9 28 -15 31 -10 3 -11 -8
-6 -44 l6 -47 -32 6 c-25 5 -33 3 -37 -11 -3 -9 -9 -23 -12 -31 -7 -13 -68
-23 -131 -21 -29 1 -33 -2 -28 -19 3 -14 -1 -21 -17 -25 -29 -8 -38 -7 -33 2
7 11 -95 9 -113 -3 -20 -12 -80 -17 -80 -6 0 5 -6 8 -12 7 -22 -3 -39 -17 -33
-27 4 -5 4 -9 0 -9 -7 0 -48 23 -55 31 -3 3 -30 22 -60 42 -61 40 -180 152
-253 239 -70 83 -168 126 -231 102 -22 -8 -20 -24 2 -24 26 0 82 -62 82 -91 0
-13 5 -40 11 -59 19 -64 19 -79 3 -119 -17 -44 -26 -48 -134 -66 -41 -7 -88
-16 -104 -20 -21 -6 -27 -5 -22 4 5 7 -2 11 -19 11 -38 0 -157 -31 -180 -47
-11 -7 -28 -13 -38 -13 -10 0 -25 -7 -34 -15 -11 -12 -31 -15 -72 -13 -55 3
-56 4 -59 34 -2 23 -9 34 -25 38 -12 3 -24 0 -28 -6 -8 -13 -29 -2 -29 15 0 7
-8 13 -17 14 -10 0 -46 4 -80 8 -73 9 -82 -2 -27 -34 23 -14 34 -27 31 -36 -3
-7 -1 -16 6 -19 8 -3 8 -5 1 -5 -6 -1 -9 -12 -6 -26 2 -15 0 -25 -7 -25 -6 0
-11 -7 -11 -15 0 -9 -7 -18 -15 -21 -8 -4 -15 -16 -16 -28 0 -15 -2 -17 -7 -6
-8 16 -92 24 -92 8 0 -5 -8 -4 -18 1 -10 5 -24 9 -32 9 -37 -2 -49 3 -44 17 4
8 2 15 -3 15 -14 0 -33 -23 -33 -40 0 -9 -19 -26 -42 -38 -48 -24 -64 -20 -30
8 12 10 22 29 22 42 0 13 9 40 20 61 11 20 20 43 20 49 0 7 15 29 33 49 17 20
33 41 35 48 4 18 55 72 82 86 29 15 150 205 150 236 0 10 -7 19 -15 19 -24 0
-95 -49 -95 -66 0 -8 -22 -37 -48 -65 -26 -27 -56 -66 -67 -85 -11 -20 -36
-54 -57 -76 -21 -22 -38 -47 -38 -54 0 -8 -9 -14 -20 -14 -11 0 -23 -6 -26
-14 -3 -8 -16 -17 -29 -20 -13 -3 -31 -14 -40 -23 -16 -15 -19 -15 -45 0 -35
21 -68 22 -91 1 -16 -15 -20 -14 -53 11 -20 15 -36 36 -36 47 0 10 -5 16 -10
13 -6 -3 -19 -3 -30 0 -16 5 -18 9 -7 25 9 16 8 23 -6 37 -14 14 -17 15 -17 2
0 -8 -9 -15 -19 -16 -21 -2 -31 22 -31 75 0 17 -4 32 -8 32 -10 0 -32 103 -32
148 0 18 -4 32 -9 32 -5 0 -12 8 -15 18 -14 47 7 -115 38 -283 25 -139 99
-400 117 -415 3 -3 18 -32 33 -65 15 -32 42 -83 61 -111 19 -29 35 -55 35 -59
0 -3 17 -32 38 -63 43 -67 50 -79 92 -149 16 -29 35 -53 40 -53 6 0 10 -9 10
-19 0 -11 4 -21 8 -23 15 -6 109 -157 117 -188 0 -3 9 -23 19 -45 10 -22 28
-59 39 -83 27 -61 16 -81 -64 -111 -72 -27 -118 -58 -168 -113 -35 -39 -102
-76 -176 -98 -55 -17 -114 -52 -150 -90 -16 -18 -41 -36 -55 -42 -22 -8 -127
-75 -282 -180 -31 -21 -59 -38 -63 -38 -4 0 -21 -10 -38 -22 -17 -12 -56 -35
-87 -50 -30 -16 -64 -34 -74 -41 -118 -74 -156 -100 -186 -126 -19 -17 -62
-45 -95 -63 -33 -17 -103 -57 -155 -88 -52 -31 -135 -78 -185 -105 -49 -26
-106 -58 -126 -71 -41 -25 -250 -135 -379 -200 -47 -23 -127 -54 -179 -69 -52
-14 -107 -33 -121 -40 -36 -19 -85 -76 -114 -133 -14 -27 -32 -54 -40 -61 -9
-8 -16 -18 -16 -23 0 -14 -40 -67 -91 -123 -73 -79 -118 -134 -172 -215 -28
-41 -54 -77 -59 -78 -4 -2 -8 -816 -8 -1808 l0 -1804 4480 0 4480 0 0 2248 -1
2247 -47 36 c-26 19 -114 68 -197 108 -82 39 -168 81 -190 92 -141 72 -489
264 -513 284 -97 80 -154 121 -192 137 -25 11 -81 36 -125 55 -44 19 -116 52
-160 73 -44 20 -98 42 -120 49 -22 7 -49 16 -60 21 -11 5 -51 20 -90 34 -104
37 -213 80 -280 111 -33 15 -76 34 -95 42 -86 38 -217 106 -235 122 -32 30
-61 41 -103 41 -102 0 -189 29 -280 94 -63 45 -139 65 -272 73 -115 6 -140 -2
-72 -26 59 -21 260 -122 273 -137 20 -24 -35 -171 -108 -292 -107 -177 -206
-286 -368 -406 -218 -162 -403 -254 -670 -335 -216 -65 -354 -100 -440 -110
-98 -12 -120 -13 -305 -14 -69 0 -154 -1 -190 -1 -152 -1 -327 32 -397 75 -21
12 -63 35 -93 51 -30 15 -49 28 -42 28 6 0 12 4 12 9 0 6 -9 8 -20 6 -11 -2
-25 2 -32 9 -14 13 -73 36 -94 36 -8 0 -14 -7 -14 -15 0 -19 -4 -19 -48 2 -93
43 -216 146 -299 250 -12 16 -36 44 -53 63 -44 50 -117 202 -136 285 -16 74
-13 139 11 185 17 33 93 103 134 124 17 9 31 23 31 31 0 24 38 13 45 -14 3
-13 17 -33 31 -43 18 -15 23 -25 18 -44 -5 -18 -2 -24 10 -24 9 0 16 7 16 15
0 8 5 15 11 15 7 0 9 -10 5 -25 -5 -18 -2 -25 8 -25 9 0 18 -14 22 -36 4 -19
13 -38 20 -41 8 -3 12 -9 9 -13 -12 -20 15 -18 29 1 17 24 36 18 36 -13 0 -14
5 -18 16 -14 18 7 54 -27 54 -51 0 -7 5 -13 10 -13 6 0 10 6 10 14 0 9 7 12
19 9 10 -3 22 0 25 6 10 16 26 13 26 -4 0 -8 7 -15 16 -15 9 0 18 -9 21 -19 5
-21 53 -36 53 -16 0 9 11 10 45 2 26 -6 45 -16 45 -24 0 -7 9 -13 19 -13 25 0
37 -31 17 -42 -12 -7 -4 -21 44 -69 32 -34 63 -58 68 -55 6 3 12 0 15 -8 4
-10 0 -12 -16 -8 -19 5 -20 3 -9 -11 8 -9 11 -21 8 -26 -4 -5 1 -14 9 -19 10
-5 13 -15 9 -26 -5 -14 -9 -15 -15 -4 -7 11 -11 10 -19 -2 -5 -8 -15 -15 -22
-16 -32 -2 -38 -4 -38 -12 0 -4 10 -8 21 -9 12 -1 28 -11 35 -22 8 -11 28 -22
44 -26 17 -4 38 -14 47 -23 9 -9 20 -18 25 -18 21 -3 22 -5 11 -12 -8 -5 0 -8
20 -8 21 0 41 -8 56 -23 l23 -23 -21 -19 c-11 -10 -24 -19 -29 -19 -11 0 -23
-40 -16 -52 3 -4 14 -8 26 -8 11 0 31 -9 45 -20 14 -11 36 -20 49 -20 13 0 42
-10 65 -22 37 -19 57 -22 160 -21 97 1 124 5 156 22 22 12 31 20 21 21 -10 0
-18 4 -18 9 0 5 -8 11 -17 14 -17 4 -17 4 1 12 12 5 21 3 27 -6 6 -10 9 -10 9
-1 0 6 8 12 18 12 26 0 34 11 21 27 -9 10 -7 13 10 13 12 0 20 4 17 8 -7 12
-161 5 -185 -8 -25 -13 -61 -13 -61 0 0 6 8 10 17 10 28 0 93 34 88 47 -4 13
17 23 51 23 13 0 32 4 42 9 9 5 26 12 37 16 15 5 16 8 6 14 -9 6 -5 10 16 15
15 4 35 13 43 21 8 7 31 15 52 19 35 6 49 21 53 58 2 22 -26 32 -66 23 -19 -4
-36 -2 -46 7 -9 7 -37 13 -62 13 -40 0 -46 3 -49 23 -3 17 1 22 20 22 13 0 29
5 36 12 7 7 12 9 12 5 0 -12 57 21 80 45 11 12 20 30 20 40 0 10 7 18 16 18 9
0 18 9 21 21 3 12 11 18 19 15 15 -6 25 24 21 59 -1 14 8 25 29 35 17 9 49 30
72 48 22 18 44 32 49 32 12 0 99 91 106 113 4 9 16 17 27 17 13 0 20 7 20 20
0 11 4 20 8 20 13 0 92 78 92 91 0 6 -27 -15 -61 -48 -74 -71 -110 -95 -127
-84 -13 8 3 25 91 98 15 13 27 27 27 33 0 5 9 10 19 10 20 0 121 91 121 109 0
6 8 11 18 11 23 0 42 19 42 42 0 13 -8 18 -27 18 l-28 0 32 21 c18 11 38 33
45 49 7 16 21 31 33 34 16 5 17 8 6 15 -11 7 -9 14 14 35 48 44 75 112 52 129
-7 5 -1 6 17 2 26 -5 28 -4 17 9 -12 15 -8 20 12 17 4 0 7 6 7 15 0 8 5 12 10
9 6 -3 10 -15 10 -26 0 -11 7 -22 15 -25 8 -4 15 -13 15 -21 0 -8 -4 -12 -8
-9 -4 2 -9 -4 -9 -15 -1 -11 2 -17 8 -14 5 4 9 2 9 -4 0 -14 101 -93 109 -86
3 4 -8 19 -24 34 -17 14 -35 38 -41 51 -15 34 4 547 23 625 3 11 7 34 10 50 2
17 7 37 10 45 3 8 7 24 9 35 7 40 10 50 16 61 4 6 8 28 9 50 1 21 7 48 13 59
5 11 11 43 12 72 1 28 7 67 12 85 6 18 16 63 22 101 7 37 13 67 15 67 1 0 22
-7 46 -16 103 -37 209 8 287 123 36 52 25 50 -25 -4 -27 -28 -62 -58 -80 -67
-61 -31 -165 -16 -211 30 -19 19 -29 10 -44 -38 l-12 -42 -8 34 c-4 19 -5 51
-2 71 3 22 1 40 -5 44 -15 8 -15 371 0 524 12 130 31 203 65 243 12 15 24 33
27 40 4 10 7 10 18 -1 9 -9 9 -11 2 -7 -7 4 -14 4 -14 -1 -1 -4 -3 -21 -5 -37
-2 -16 -7 -32 -11 -35 -7 -5 -10 -66 -5 -117 1 -11 12 -26 25 -31 32 -15 84
-117 93 -181 9 -67 -13 -118 -67 -162 -41 -32 -57 -19 -19 15 37 33 51 74 37
104 -19 41 -45 39 -63 -6 -8 -21 -19 -47 -24 -58 -5 -11 -11 -51 -15 -90 -3
-38 -8 -84 -11 -102 -5 -29 -3 -33 22 -39 16 -4 34 -10 39 -14 6 -4 33 -8 60
-9 34 0 45 3 35 9 -11 7 -9 11 13 19 15 6 27 15 27 20 0 5 7 12 16 15 13 5 15
1 11 -16 -9 -36 6 -52 26 -30 16 18 16 20 -7 46 -19 23 -29 27 -52 22 -84 -16
-107 -16 -126 0 -10 10 -18 28 -18 41 0 19 3 22 18 16 54 -26 134 16 162 85 6
13 19 26 30 29 11 3 20 9 20 13 0 5 15 12 33 15 17 4 54 19 80 33 39 21 53 36
74 80 22 47 25 64 21 127 -7 100 -51 155 -113 139 -13 -3 -48 -1 -79 6 -49 10
-56 14 -56 35 0 29 8 35 62 41 35 4 53 15 94 56 50 49 52 50 76 34 13 -8 29
-30 35 -48 21 -57 53 -234 53 -285 -2 -125 -61 -223 -153 -254 -21 -7 -44 -21
-51 -31 -16 -22 -9 -68 10 -68 45 0 150 93 189 168 15 29 29 51 31 49 7 -7
-17 -77 -26 -77 -6 0 -10 -6 -10 -14 0 -19 -60 -116 -71 -116 -5 0 -9 -5 -9
-11 0 -6 -11 -25 -24 -42 -13 -18 -27 -43 -31 -57 -5 -21 -1 -19 29 15 44 50
117 157 144 210 20 41 45 112 77 220 9 33 32 105 50 160 32 97 33 110 19 202
-4 29 -27 61 -86 121 -30 29 -112 31 -162 3 -64 -36 -121 -74 -162 -107 -22
-19 -43 -31 -47 -28 -3 3 -16 -2 -30 -11 -13 -8 -38 -17 -55 -18 -25 -2 -28
-5 -19 -16 10 -12 9 -13 -7 -8 -12 5 -22 3 -27 -4 -5 -9 -11 -9 -22 2 -13 13
-12 20 9 59 13 25 24 49 24 55 0 5 17 29 38 52 40 45 42 49 51 107 3 22 11 41
18 43 6 2 28 -11 48 -30 l36 -34 -46 -23 c-25 -13 -45 -27 -45 -31 0 -4 -3
-14 -6 -23 -4 -12 0 -16 15 -16 12 0 21 5 21 11 0 6 7 9 15 5 9 -3 15 0 15 8
0 8 15 24 34 35 19 12 40 29 47 38 12 15 12 16 -5 10 -20 -8 -20 -2 4 103 6
25 12 54 14 65 2 11 5 20 6 20 1 0 4 14 6 30 4 33 5 40 22 100 6 22 9 53 7 70
-2 16 -1 34 3 40 4 5 7 26 9 45 2 37 17 180 33 315 6 44 12 141 16 215 3 74 8
137 13 140 13 9 1 234 -18 329 -6 30 -8 58 -5 62 3 5 1 17 -5 26 -7 13 -4 22
11 35 16 14 18 21 9 32 -9 10 -9 16 -1 21 7 5 8 11 1 19 -6 7 -8 21 -5 33 3
11 1 24 -5 27 -6 4 -11 16 -11 27 0 11 -7 22 -15 25 -8 4 -15 17 -15 31 0 13
-22 58 -50 99 -27 41 -45 74 -40 74 17 0 -1 28 -23 35 -19 6 -20 8 -4 12 19 5
22 18 7 28 -7 4 -8 11 -1 18 11 14 -12 77 -29 77 -6 0 -10 6 -9 13 8 39 -14
75 -66 108 -30 19 -54 39 -55 45 0 15 -67 74 -82 74 -9 0 -9 3 0 12 19 19 14
38 -8 38 -14 0 -20 6 -18 16 4 20 -39 54 -70 57 -15 1 -21 6 -17 15 6 17 -13
44 -26 36 -5 -3 -9 0 -9 5 0 6 -7 11 -15 11 -8 0 -16 5 -16 10 -1 6 -2 16 -3
23 -2 20 -67 48 -83 35 -9 -8 -13 -7 -13 1 0 7 -4 9 -10 6 -13 -8 -69 25 -75
45 -3 8 -26 30 -53 48 -53 36 -85 42 -75 15 9 -23 -50 23 -67 52 -6 11 -28 32
-50 48 -38 27 -67 36 -55 17 10 -16 -8 -11 -34 9 -13 10 -31 16 -40 14 -9 -2
-26 5 -38 16 -22 21 -30 21 -655 21 -518 -1 -635 -3 -645 -14z m542 -4470 c18
-8 42 -27 51 -43 10 -15 24 -32 31 -36 7 -4 13 -12 13 -17 0 -5 11 -25 24 -44
25 -38 25 -92 0 -82 -8 3 -14 -1 -14 -8 0 -18 -27 -28 -36 -14 -4 7 -3 8 4 4
8 -5 12 0 12 13 0 25 -31 29 -50 6 -10 -12 -10 -15 0 -15 8 0 11 -3 7 -6 -3
-3 -13 -1 -23 4 -19 10 -35 0 -47 -28 -4 -12 -6 -12 -6 1 -1 11 -9 17 -23 16
-13 0 -31 3 -42 8 -16 7 -17 5 -12 -16 3 -13 3 -18 0 -10 -5 11 -8 11 -15 0
-6 -10 -8 -7 -7 11 2 14 7 28 13 32 5 4 6 10 2 14 -3 4 -13 1 -21 -5 -20 -17
-38 -4 -31 20 5 15 1 19 -15 19 -18 0 -20 -4 -14 -22 4 -13 11 -26 16 -29 6
-4 6 -9 -1 -13 -6 -4 -11 -3 -11 3 0 6 -8 8 -17 5 -14 -5 -15 -4 -4 4 8 6 11
17 7 27 -7 19 24 76 58 110 12 11 33 34 47 50 21 25 54 52 67 54 1 1 18 -5 37
-13z m-1479 -280 c7 -8 22 -12 33 -9 16 4 21 -1 25 -29 8 -44 3 -87 -8 -85
-20 4 -16 -31 4 -36 14 -3 20 -13 20 -31 0 -15 8 -38 17 -53 9 -14 16 -38 15
-53 -1 -18 4 -30 14 -34 9 -3 14 -13 10 -21 -3 -8 -1 -17 4 -20 13 -8 13 -25
0 -25 -5 0 -10 7 -10 15 0 8 -5 15 -12 15 -6 0 -8 3 -5 7 10 10 -13 33 -33 33
-13 0 -16 6 -12 25 6 32 -6 65 -17 47 -11 -19 -42 47 -32 68 15 28 23 90 11
90 -5 0 -10 -4 -10 -9 0 -12 -43 -1 -52 13 -4 6 -5 27 -2 46 10 65 15 70 40
46z m964 -152 c189 -3 222 -6 230 -15 6 -8 86 -19 173 -24 75 -4 82 -7 74 -30
-8 -18 -87 -20 -187 -4 -169 26 -221 26 -340 1 -38 -9 -56 -6 -117 14 l-72 24
-113 -16 c-62 -9 -119 -21 -126 -27 -9 -7 -16 -7 -24 1 -8 8 -15 8 -23 2 -7
-6 -20 -7 -30 -4 -15 6 -12 10 16 25 19 10 47 18 62 19 15 0 44 7 65 16 52 24
118 33 182 27 30 -3 134 -7 230 -9z m-620 -196 c0 -9 2 -10 8 -2 4 6 25 11 47
11 36 0 44 -5 78 -49 21 -26 55 -61 75 -76 20 -15 47 -37 60 -49 14 -13 28
-23 32 -23 8 0 33 -53 28 -60 -5 -7 -72 1 -82 11 -6 5 -18 9 -28 9 -9 0 -22 9
-28 20 -12 23 -72 28 -115 8 -25 -11 -34 -28 -15 -28 6 0 10 -7 10 -15 0 -8
-9 -15 -20 -15 -16 0 -20 7 -20 35 0 24 -6 37 -20 45 -20 11 -28 50 -10 50 6
0 10 5 10 10 0 20 -29 9 -32 -12 -5 -37 -23 -30 -23 10 -1 20 -4 44 -8 53 -6
13 -2 16 24 17 42 1 48 10 21 31 -13 9 -20 20 -16 24 11 11 24 8 24 -5z m360
-22 c30 -8 94 -23 141 -31 95 -18 174 -12 314 25 50 13 73 16 82 8 9 -7 13 -7
13 1 0 16 27 13 34 -4 3 -9 0 -15 -9 -15 -8 0 -15 -4 -15 -10 0 -5 -11 -10
-23 -10 -13 0 -48 -13 -78 -30 -30 -16 -65 -30 -80 -30 -14 0 -30 -5 -37 -12
-13 -13 -74 -15 -218 -7 -104 6 -137 15 -114 29 8 5 2 10 -19 15 -18 4 -31 13
-31 21 0 10 -6 13 -18 10 -12 -4 -21 2 -30 24 -16 35 -9 54 16 40 9 -5 42 -16
72 -24z m843 16 c-2 -10 3 -24 12 -32 13 -11 22 -11 52 4 41 19 58 11 66 -32
6 -31 -16 -62 -45 -62 -10 0 -18 -5 -18 -11 0 -8 14 -10 40 -6 36 5 40 3 40
-17 0 -17 -6 -22 -21 -22 -12 1 -24 -5 -26 -11 -3 -7 2 -13 11 -13 9 0 16 -4
16 -10 0 -18 -32 -10 -37 9 -8 31 -69 33 -125 5 -46 -23 -46 -23 -71 -4 -14
11 -29 20 -35 20 -17 0 -72 -32 -72 -42 0 -6 -10 -8 -21 -5 -12 3 -31 0 -43
-7 -29 -18 -97 -10 -89 11 3 8 0 19 -8 24 -20 13 -32 11 -26 -3 3 -8 -4 -13
-19 -13 -13 0 -24 2 -24 6 0 12 25 29 43 29 10 0 16 4 13 9 -3 4 19 16 49 25
29 10 59 24 66 32 6 8 23 14 37 14 14 0 35 11 48 25 13 14 32 25 42 25 11 0
25 7 32 15 7 8 17 15 22 15 5 0 21 9 35 20 33 26 63 27 56 2z m-1066 -422 c6
-16 17 -30 23 -30 7 0 10 7 6 16 -5 14 -1 15 26 10 18 -4 42 -8 53 -10 11 -3
30 -5 42 -5 12 -1 35 -13 50 -27 l28 -25 -42 5 c-47 7 -60 -9 -18 -20 32 -8
133 4 140 17 9 13 45 11 45 -3 0 -9 3 -9 12 0 7 7 19 12 28 11 11 0 9 -4 -7
-16 -23 -15 -31 -43 -14 -43 5 0 21 4 35 9 17 7 23 15 19 29 -7 29 28 34 58 8
13 -12 24 -30 24 -40 0 -11 6 -21 14 -24 10 -3 12 1 9 16 -9 35 32 56 81 41
26 -8 38 -16 34 -25 -3 -8 0 -14 6 -14 6 0 11 7 11 15 0 12 4 13 19 4 11 -7
26 -9 37 -4 17 7 17 8 -6 14 -14 4 -26 14 -28 23 -3 14 4 15 40 11 24 -3 52
-9 62 -13 20 -7 74 8 97 27 8 6 30 13 49 15 26 3 36 9 38 25 l3 22 35 -21 34
-20 0 21 c0 12 4 21 9 21 5 0 17 3 27 7 11 4 15 3 10 -5 -4 -6 -1 -20 6 -31 9
-15 9 -23 -1 -35 -7 -9 -17 -13 -22 -10 -5 3 -9 1 -9 -5 0 -6 9 -15 20 -21 22
-12 27 -30 8 -30 -6 0 -20 7 -30 16 -14 14 -20 14 -33 4 -8 -7 -15 -18 -15
-26 0 -20 21 -28 31 -13 7 11 9 10 9 -3 0 -10 -5 -18 -11 -18 -7 0 -18 -8 -25
-17 -8 -11 -13 -13 -14 -5 0 18 -21 15 -36 -5 -7 -10 -16 -14 -21 -9 -4 5 -2
11 5 13 14 5 16 29 2 38 -13 8 -58 -23 -65 -45 -3 -11 -20 -21 -40 -24 -22 -4
-36 -14 -40 -27 l-7 -21 -19 21 c-25 27 -27 26 -39 -4 -5 -14 -14 -25 -19 -25
-6 0 -8 7 -5 15 6 15 -11 22 -19 8 -2 -5 -3 -3 -1 3 3 13 -15 34 -28 34 -4 0
-8 -8 -8 -17 0 -10 -9 -29 -20 -43 -11 -14 -19 -19 -18 -11 4 18 -32 27 -42
11 -5 -8 -10 -9 -14 -2 -3 6 1 18 10 27 23 22 14 26 -30 14 -40 -11 -62 -4
-35 11 22 13 14 59 -9 55 -10 -1 -17 -10 -17 -20 0 -10 -9 -23 -20 -29 -11 -6
-25 -18 -32 -26 -11 -13 -14 -13 -22 -1 -5 8 -14 10 -22 5 -20 -12 -39 -14
-39 -3 0 4 -7 6 -15 3 -22 -9 -19 20 5 41 21 19 27 45 10 45 -6 0 -14 -8 -17
-17 -15 -41 -53 -44 -50 -5 2 23 -2 28 -25 30 -16 2 -28 -1 -28 -7 0 -6 5 -11
10 -11 6 0 10 -9 10 -20 0 -11 -7 -20 -15 -20 -8 0 -15 5 -15 10 0 13 -37 13
-45 0 -3 -5 -12 -7 -20 -3 -10 3 -15 -2 -15 -16 0 -12 5 -21 10 -21 6 0 10 -8
10 -17 0 -13 -8 -9 -30 17 -16 19 -30 40 -31 45 -5 42 -20 67 -35 61 -18 -7
-45 4 -39 15 3 4 12 6 20 2 9 -3 15 1 15 11 0 9 -7 16 -15 16 -8 0 -15 7 -15
15 0 9 -9 15 -21 15 -12 0 -23 8 -26 19 -3 11 -15 22 -26 26 -22 6 -22 6 -2
15 29 13 30 13 42 -20z"/>
<path d="M2189 8584 c-6 -17 -9 -63 -6 -114 4 -71 11 -100 44 -175 22 -49 53
-124 69 -165 l29 -75 6 130 c7 127 15 217 24 243 10 28 -67 128 -127 167 -28
17 -28 17 -39 -11z"/>
<path d="M2622 8360 c-13 -5 -37 -11 -53 -12 -17 -1 -33 -6 -35 -10 -3 -4 -11
-5 -18 -2 -8 3 -17 1 -21 -5 -3 -6 -14 -11 -23 -11 -10 0 -25 -13 -35 -29 -15
-26 -15 -33 -2 -77 7 -27 17 -82 21 -123 6 -62 12 -79 34 -103 15 -15 31 -28
36 -28 5 0 27 -9 48 -21 24 -13 48 -18 62 -15 13 4 24 3 23 -1 -4 -23 3 -35
16 -29 8 3 15 1 15 -4 0 -5 -11 -9 -25 -8 -14 1 -25 6 -25 10 0 4 -4 8 -10 8
-5 0 -10 -9 -10 -20 0 -11 5 -21 10 -21 6 -1 14 -2 19 -3 22 -3 53 -66 32 -66
-5 0 -12 8 -14 18 -4 15 -5 15 -6 -1 -2 -28 36 -54 114 -78 39 -12 77 -27 85
-34 10 -7 46 -11 102 -10 48 1 85 -2 82 -7 -3 -4 -12 -8 -20 -8 -22 0 -18 -47
6 -53 18 -5 93 13 187 44 20 6 61 7 103 3 61 -6 73 -4 91 12 22 19 69 112 69
136 0 21 26 89 32 83 3 -3 11 1 18 10 16 20 108 20 134 0 10 -8 23 -12 28 -9
5 4 23 -6 39 -22 22 -21 29 -37 30 -68 1 -70 53 -177 79 -161 7 5 65 7 129 6
96 -2 126 -7 180 -28 36 -14 70 -30 76 -34 5 -5 21 -9 36 -9 15 0 31 -4 34
-10 3 -5 27 -10 53 -9 41 0 44 2 25 11 -13 6 -23 15 -23 19 0 17 28 23 114 20
50 -1 129 5 176 13 47 9 97 16 113 16 23 0 27 3 22 23 -5 19 -1 24 27 32 35
11 52 45 23 45 -9 0 -15 6 -13 13 6 19 89 56 126 57 35 0 84 21 117 50 11 9
36 22 55 29 71 26 81 34 79 60 -1 15 3 39 10 54 16 40 15 43 -21 69 -34 24
-41 29 -96 63 -36 23 -40 32 -14 38 12 3 11 5 -6 6 -13 0 -36 8 -51 16 -16 8
-59 17 -97 21 -69 6 -170 30 -189 44 -5 4 -60 11 -121 15 -96 6 -112 4 -117
-9 -4 -11 -19 -16 -47 -16 -30 0 -40 -4 -40 -16 0 -10 -6 -13 -17 -10 -10 3
-45 -1 -78 -10 -33 -8 -87 -20 -119 -25 -33 -5 -63 -14 -67 -21 -15 -24 -427
-24 -451 0 -16 16 -140 3 -154 -16 -8 -11 -19 -13 -40 -7 -16 4 -58 8 -94 8
-36 0 -59 2 -52 4 6 3 12 9 12 14 0 14 -48 11 -54 -3 -3 -10 -8 -9 -18 4 -13
15 -15 15 -25 0 -10 -16 -13 -15 -27 4 -15 21 -28 25 -131 43 -64 12 -86 20
-108 42 -13 14 -23 16 -40 10 -21 -8 -77 12 -85 32 -2 4 -17 7 -34 7 -25 0
-28 3 -23 21 6 17 3 20 -17 18 -12 -2 -27 -1 -33 3 -20 12 -100 17 -123 8z"/>
<path d="M3312 5151 c-26 -36 -28 -57 -6 -65 10 -4 13 -13 9 -26 -5 -15 0 -23
19 -31 15 -7 28 -23 31 -40 4 -16 11 -29 16 -29 5 0 9 -13 9 -30 0 -31 19 -43
21 -12 0 11 4 7 11 -11 5 -15 14 -25 19 -21 5 3 12 -2 15 -10 4 -11 19 -16 45
-16 28 0 41 -5 49 -20 6 -11 19 -20 28 -20 10 0 28 -10 41 -21 21 -20 24 -20
39 -5 15 14 13 18 -24 50 -21 20 -46 35 -53 36 -12 0 -12 3 -3 12 9 9 22 4 57
-21 25 -18 45 -27 45 -22 0 6 11 11 24 11 13 0 29 7 36 15 10 12 8 16 -15 25
-14 5 -33 10 -41 10 -25 0 -54 20 -54 36 0 8 -19 24 -43 34 -45 20 -87 61 -87
84 0 12 -27 27 -56 30 -6 1 -18 7 -26 14 -8 6 -17 9 -20 7 -3 -3 -3 5 -1 18 3
17 0 26 -14 29 -10 3 -25 9 -33 12 -11 4 -23 -4 -38 -23z"/>
<path d="M4998 5057 c-28 -17 -38 -28 -37 -47 0 -21 2 -22 8 -7 10 26 24 17
27 -15 1 -23 -2 -28 -22 -28 -17 0 -24 -6 -24 -19 0 -11 -5 -23 -10 -26 -6 -4
-8 -15 -5 -26 5 -16 1 -19 -27 -19 -32 -1 -68 -19 -68 -35 0 -7 57 1 86 12 9
3 14 -1 14 -12 0 -9 -13 -22 -30 -28 -50 -19 -35 -32 32 -29 35 1 73 5 86 7
26 6 30 25 5 26 -10 0 6 10 36 22 l54 21 -28 22 c-24 19 -27 25 -16 38 15 17
36 22 26 6 -3 -5 -1 -18 5 -27 10 -17 10 -16 8 2 -1 11 3 35 11 52 7 18 11 39
7 48 -8 22 -43 18 -56 -6 -7 -12 -18 -18 -26 -15 -8 3 -14 0 -14 -7 0 -7 -7 1
-15 17 -10 20 -12 33 -5 41 5 6 7 15 3 18 -3 4 -1 7 5 7 7 0 12 -7 12 -16 0
-14 3 -14 15 -4 19 16 19 30 1 30 -8 0 -16 4 -18 9 -1 5 -20 -1 -40 -12z"/>
</g>
</svg>
